# xmcd CD database file generated by Grip 2.92
# 
# Track frame offsets:
#       150
#       15390
#       27853
#       40320
#       53945
#       68498
#       80108
#       93013
#       105895
#       118775
#       129753
#       142345
#       155065
#       166703
#       180068
#       191615
#       204103
#       216720
#       230148
# 
# Disc length: 3249 seconds
# 
# Revision: 3
# Processed by: cddbd v1.4b41PL1 Copyright (c) Steve Scherf et al.
# Submitted via: Grip 2.92
# 
DISCID=f80caf13
DTITLE=Blind Boy Fuller - Masters of Country Blues Guitar
DYEAR=1900
DGENRE=
TTITLE0=Black And Tan
TTITLE1=Meat Shakin' Woman
TTITLE2=Stingy Mama
TTITLE3=Corrine, What Makes You Treat Me So?
TTITLE4=Weeping Willow
TTITLE5=Baby, Quit Your Low Down Ways
TTITLE6=Piccolo Rag
TTITLE7=Untrue Blues
TTITLE8=Painful Hearted Man
TTITLE9=Get Your Yas Yas Out
TTITLE10=Thousand Women Blues
TTITLE11=Sweet Honey Hole
TTITLE12=Screaming and Crying Blues
TTITLE13=Walking My Troubles Away
TTITLE14=Jitterbug Rag
TTITLE15=Crooked Woman Blues
TTITLE16=Lost Lover Blues
TTITLE17=Mama Let Me Lay It On You
TTITLE18=Worn Out Engine
EXTD=
EXTT0=
EXTT1=
EXTT2=
EXTT3=
EXTT4=
EXTT5=
EXTT6=
EXTT7=
EXTT8=
EXTT9=
EXTT10=
EXTT11=
EXTT12=
EXTT13=
EXTT14=
EXTT15=
EXTT16=
EXTT17=
EXTT18=
PLAYORDER=
